<svg width="500" height="167" viewBox="0 0 500 167" fill="none" xmlns="http://www.w3.org/2000/svg">
<path d="M104.828 1.75L122.641 57.4375L140.453 1.75H151.516V70H142.938V43.4219L143.734 16.7969L125.875 70H119.312L101.547 16.9844L102.344 43.4219V70H93.7656V1.75H104.828ZM177.375 29.5938H191.156C197.281 29.625 202.078 31.4219 205.547 34.9844C209.016 38.5156 210.75 43.3906 210.75 49.6094C210.75 55.8594 208.984 60.8281 205.453 64.5156C201.953 68.1719 197.094 70 190.875 70H168.797V1.75H177.375V29.5938ZM225.328 70H216.75V1.75H225.328V70ZM177.375 37V62.6406H191.062C194.562 62.6406 197.281 61.4375 199.219 59.0312C201.156 56.625 202.125 53.4531 202.125 49.5156C202.125 45.6406 201.156 42.5938 199.219 40.375C197.312 38.125 194.609 37 191.109 37H177.375ZM285.688 48.3438C285.312 55.6562 283.25 61.25 279.5 65.125C275.781 69 270.516 70.9375 263.703 70.9375C256.859 70.9375 251.422 68.3438 247.391 63.1562C243.359 57.9375 241.344 50.875 241.344 41.9688V29.5938C241.344 20.7188 243.406 13.7031 247.531 8.54688C251.688 3.39062 257.344 0.8125 264.5 0.8125C271.094 0.8125 276.188 2.79687 279.781 6.76562C283.406 10.7031 285.375 16.3437 285.688 23.6875H277.016C276.641 18.125 275.469 14.1563 273.5 11.7812C271.531 9.40625 268.531 8.21875 264.5 8.21875C259.844 8.21875 256.266 10.0469 253.766 13.7031C251.266 17.3281 250.016 22.6562 250.016 29.6875V42.2031C250.016 49.1094 251.172 54.4062 253.484 58.0938C255.828 61.7812 259.234 63.625 263.703 63.625C268.172 63.625 271.391 62.5156 273.359 60.2969C275.328 58.0781 276.547 54.0938 277.016 48.3438H285.688ZM343.234 1.75V70H334.609V9.15625H315.531L314.5 37.8438C314.125 46.2188 313.328 52.6094 312.109 57.0156C310.891 61.4219 309.109 64.6719 306.766 66.7656C304.422 68.8594 301.344 69.9375 297.531 70H294.906V62.6406L296.5 62.5469C298.781 62.3594 300.562 61.4844 301.844 59.9219C303.125 58.3281 304.094 55.8125 304.75 52.375C305.406 48.9375 305.875 43.6875 306.156 36.625L307.281 1.75H343.234ZM396.094 1.75H404.672V70H396.094V17.4062L369.516 70H360.891V1.75H369.516V54.3438L396.094 1.75ZM36.375 105.156H9.51562V166H0.890625V97.75H36.375V105.156ZM88.0625 97.75V166H79.4375V105.156H60.3594L59.3281 133.844C58.9531 142.219 58.1562 148.609 56.9375 153.016C55.7188 157.422 53.9375 160.672 51.5938 162.766C49.25 164.859 46.1719 165.938 42.3594 166H39.7344V158.641L41.3281 158.547C43.6094 158.359 45.3906 157.484 46.6719 155.922C47.9531 154.328 48.9219 151.812 49.5781 148.375C50.2344 144.938 50.7031 139.688 50.9844 132.625L52.1094 97.75H88.0625ZM149.734 137.875C149.734 147.188 147.75 154.359 143.781 159.391C139.812 164.422 134.172 166.938 126.859 166.938C119.828 166.938 114.266 164.5 110.172 159.625C106.109 154.719 104 147.797 103.844 138.859V126.016C103.844 116.891 105.859 109.75 109.891 104.594C113.922 99.4062 119.547 96.8125 126.766 96.8125C133.953 96.8125 139.547 99.2969 143.547 104.266C147.578 109.203 149.641 116.266 149.734 125.453V137.875ZM141.156 125.922C141.156 118.703 139.969 113.344 137.594 109.844C135.25 106.312 131.641 104.547 126.766 104.547C122.047 104.547 118.469 106.328 116.031 109.891C113.625 113.453 112.406 118.703 112.375 125.641V137.875C112.375 144.844 113.578 150.156 115.984 153.812C118.422 157.469 122.047 159.297 126.859 159.297C131.672 159.297 135.234 157.609 137.547 154.234C139.859 150.859 141.062 145.688 141.156 138.719V125.922ZM200.203 105.156H173.344V125.594H187.125C193.25 125.625 198.047 127.422 201.516 130.984C204.984 134.516 206.719 139.391 206.719 145.609C206.719 151.859 204.953 156.828 201.422 160.516C197.922 164.172 193.062 166 186.844 166H164.719V97.75H200.203V105.156ZM173.344 133V158.641H187.031C190.531 158.641 193.25 157.438 195.188 155.031C197.125 152.625 198.094 149.453 198.094 145.516C198.094 141.641 197.125 138.594 195.188 136.375C193.281 134.125 190.578 133 187.078 133H173.344ZM251.609 148.188H228.547L223.25 166H214.438L236.422 97.75H243.781L265.812 166H257L251.609 148.188ZM230.797 140.781H249.406L240.078 109.75L230.797 140.781ZM321.812 97.75V166H313.188V105.156H294.109L293.078 133.844C292.703 142.219 291.906 148.609 290.688 153.016C289.469 157.422 287.688 160.672 285.344 162.766C283 164.859 279.922 165.938 276.109 166H273.484V158.641L275.078 158.547C277.359 158.359 279.141 157.484 280.422 155.922C281.703 154.328 282.672 151.812 283.328 148.375C283.984 144.938 284.453 139.688 284.734 132.625L285.859 97.75H321.812ZM347.438 125.594H361.219C367.344 125.625 372.141 127.422 375.609 130.984C379.078 134.516 380.812 139.391 380.812 145.609C380.812 151.859 379.047 156.828 375.516 160.516C372.016 164.172 367.156 166 360.938 166H338.859V97.75H347.438V125.594ZM347.438 133V158.641H361.125C364.625 158.641 367.344 157.438 369.281 155.031C371.219 152.625 372.188 149.453 372.188 145.516C372.188 141.641 371.219 138.594 369.281 136.375C367.375 134.125 364.672 133 361.172 133H347.438ZM438.734 166H430.109V134.453H402.641V166H394.062V97.75H402.641V127.094H430.109V97.75H438.734V166ZM499.984 137.875C499.984 147.188 498 154.359 494.031 159.391C490.062 164.422 484.422 166.938 477.109 166.938C470.078 166.938 464.516 164.5 460.422 159.625C456.359 154.719 454.25 147.797 454.094 138.859V126.016C454.094 116.891 456.109 109.75 460.141 104.594C464.172 99.4062 469.797 96.8125 477.016 96.8125C484.203 96.8125 489.797 99.2969 493.797 104.266C497.828 109.203 499.891 116.266 499.984 125.453V137.875ZM491.406 125.922C491.406 118.703 490.219 113.344 487.844 109.844C485.5 106.312 481.891 104.547 477.016 104.547C472.297 104.547 468.719 106.328 466.281 109.891C463.875 113.453 462.656 118.703 462.625 125.641V137.875C462.625 144.844 463.828 150.156 466.234 153.812C468.672 157.469 472.297 159.297 477.109 159.297C481.922 159.297 485.484 157.609 487.797 154.234C490.109 150.859 491.312 145.688 491.406 138.719V125.922Z" fill="white"/>
</svg>
